<?xml version="1.0" encoding="iso-8859-1"?>
<svg version="1.1" id="Capa_1" xmlns="http://www.w3.org/2000/svg" xmlns:xlink="http://www.w3.org/1999/xlink" x="0px" y="0px"
	 viewBox="0 0 512.003 512.003" style="enable-background:new 0 0 512.003 512.003;" xml:space="preserve">
<path style="fill:#303C42;" d="M509.667,249.335L467,196.001c-2.031-2.531-5.094-4-8.333-4h-160v-21.333
	c0-3.5-1.719-6.771-4.594-8.771c-2.854-1.99-6.542-2.469-9.813-1.219l-15.448,5.792c-28.177-37.604-72.229-59.802-119.479-59.802
	C66.99,106.668,0,173.658,0,256.001s66.99,149.333,149.333,149.333c47.25,0,91.302-22.198,119.479-59.802l15.448,5.792
	c3.271,1.25,6.958,0.75,9.813-1.219c2.875-2,4.594-5.271,4.594-8.771v-21.333h10.667c2.833,0,5.542-1.125,7.542-3.125l13.792-13.792
	l13.792,13.792c4.167,4.167,10.917,4.167,15.083,0l13.792-13.792l13.792,13.792c4.167,4.167,10.917,4.167,15.083,0L416,303.085
	l13.792,13.792c2,2,4.708,3.125,7.542,3.125h21.333c3.24,0,6.302-1.469,8.333-4l42.667-53.333
	C512.781,258.772,512.781,253.23,509.667,249.335z M85.333,277.335c-11.76,0-21.333-9.573-21.333-21.333
	c0-11.76,9.573-21.333,21.333-21.333s21.333,9.573,21.333,21.333C106.667,267.762,97.094,277.335,85.333,277.335z"/>
<path style="fill:#FFCA28;" d="M453.542,213.335H288c-5.896,0-10.667-4.771-10.667-10.667v-16.615l-8.74,3.281
	c-4.646,1.708-9.885,0.042-12.625-4.083c-23.833-35.844-63.698-57.25-106.635-57.25c-70.583,0-128,57.417-128,128
	s57.417,128,128,128c42.938,0,82.802-21.406,106.635-57.25c2.74-4.135,7.979-5.844,12.625-4.083l8.74,3.281v-16.615
	c0-5.896,4.771-10.667,10.667-10.667h16.917l18.208-18.208c4.167-4.167,10.917-4.167,15.083,0L352,294.251l13.792-13.792
	c4.167-4.167,10.917-4.167,15.083,0l13.792,13.792l13.792-13.792c4.167-4.167,10.917-4.167,15.083,0l18.208,18.208h11.792
	l34.135-42.667L453.542,213.335z M85.333,298.668c-23.531,0-42.667-19.135-42.667-42.667s19.135-42.667,42.667-42.667
	S128,232.47,128,256.001S108.865,298.668,85.333,298.668z"/>
<path style="opacity:0.1;enable-background:new    ;" d="M453.542,264.001H441.75l-18.208-18.208
	c-4.167-4.167-10.917-4.167-15.083,0l-13.792,13.792l-13.792-13.792c-4.167-4.167-10.917-4.167-15.083,0L352,259.585l-13.792-13.792
	c-4.167-4.167-10.917-4.167-15.083,0l-18.208,18.208H288c-5.896,0-10.667,4.771-10.667,10.667v16.615l-8.74-3.281
	c-4.646-1.76-9.885-0.052-12.625,4.083c-23.833,35.844-63.698,57.25-106.635,57.25c-64.69,0-118.181-48.273-126.686-110.667
	c-0.775,5.684-1.314,11.44-1.314,17.333c0,70.583,57.417,128,128,128c42.938,0,82.802-21.406,106.635-57.25
	c2.74-4.135,7.979-5.844,12.625-4.083l8.74,3.281v-16.615c0-5.896,4.771-10.667,10.667-10.667h16.917l18.208-18.208
	c4.167-4.167,10.917-4.167,15.083,0L352,294.251l13.792-13.792c4.167-4.167,10.917-4.167,15.083,0l13.792,13.792l13.792-13.792
	c4.167-4.167,10.917-4.167,15.083,0l18.208,18.208h11.792l34.135-42.667l-13.867-17.333L453.542,264.001z"/>
<linearGradient id="SVGID_1_" gradientUnits="userSpaceOnUse" x1="-45.6454" y1="638.3023" x2="-25.2953" y2="628.8127" gradientTransform="matrix(21.3333 0 0 -21.3333 996.3069 13791.6963)">
	<stop  offset="0" style="stop-color:#FFFFFF;stop-opacity:0.2"/>
	<stop  offset="1" style="stop-color:#FFFFFF;stop-opacity:0"/>
</linearGradient>
<path style="fill:url(#SVGID_1_);" d="M509.667,249.335L467,196.001c-2.031-2.531-5.094-4-8.333-4h-160v-21.333
	c0-3.5-1.719-6.771-4.594-8.771c-2.854-1.99-6.542-2.469-9.813-1.219l-15.448,5.792c-28.177-37.604-72.229-59.802-119.479-59.802
	C66.99,106.668,0,173.658,0,256.001s66.99,149.333,149.333,149.333c47.25,0,91.302-22.198,119.479-59.802l15.448,5.792
	c3.271,1.25,6.958,0.75,9.813-1.219c2.875-2,4.594-5.271,4.594-8.771v-21.333h10.667c2.833,0,5.542-1.125,7.542-3.125l13.792-13.792
	l13.792,13.792c4.167,4.167,10.917,4.167,15.083,0l13.792-13.792l13.792,13.792c4.167,4.167,10.917,4.167,15.083,0L416,303.085
	l13.792,13.792c2,2,4.708,3.125,7.542,3.125h21.333c3.24,0,6.302-1.469,8.333-4l42.667-53.333
	C512.781,258.772,512.781,253.23,509.667,249.335z M85.333,277.335c-11.76,0-21.333-9.573-21.333-21.333
	c0-11.76,9.573-21.333,21.333-21.333s21.333,9.573,21.333,21.333C106.667,267.762,97.094,277.335,85.333,277.335z"/>
</svg>
