<svg height="512" viewBox="0 0 512 512" width="512" xmlns="http://www.w3.org/2000/svg"><g><path d="m182.461 155.48 49.539-49.539v262.059a24 24 0 0 0 48 0v-262.059l49.539 49.539a24 24 0 1 0 33.941-33.941l-90.509-90.51a24 24 0 0 0 -33.942 0l-90.509 90.51a24 24 0 1 0 33.941 33.941z" fill="#ffd54f"/><path d="m464 232a24 24 0 0 0 -24 24v184h-368v-184a24 24 0 0 0 -48 0v192a40 40 0 0 0 40 40h384a40 40 0 0 0 40-40v-192a24 24 0 0 0 -24-24z" fill="#2096f3"/><g fill="#0d47a0"><path d="m256 399.985a32.036 32.036 0 0 1 -32-32v-242.745l-35.882 35.882a32 32 0 0 1 -45.255-45.256l90.51-90.51a32.038 32.038 0 0 1 45.255 0l90.511 90.51a32 32 0 0 1 -45.255 45.256l-35.884-35.882v242.745a32.036 32.036 0 0 1 -32 32zm-24-302.059a8 8 0 0 1 8 8v262.059a16 16 0 0 0 32 0v-262.059a8 8 0 0 1 13.657-5.656l49.543 49.539a16 16 0 1 0 22.627-22.628l-90.51-90.51a16.018 16.018 0 0 0 -22.627 0l-90.509 90.51a16 16 0 1 0 22.628 22.627l49.538-49.538a8 8 0 0 1 5.653-2.344z"/><path d="m448 496h-384a48.054 48.054 0 0 1 -48-48v-192a32 32 0 0 1 64 0v176h352v-176a32 32 0 0 1 64 0v192a48.054 48.054 0 0 1 -48 48zm-400-256a16.019 16.019 0 0 0 -16 16v192a32.036 32.036 0 0 0 32 32h384a32.036 32.036 0 0 0 32-32v-192a16 16 0 0 0 -32 0v184a8 8 0 0 1 -8 8h-368a8 8 0 0 1 -8-8v-184a16.019 16.019 0 0 0 -16-16z"/></g></g></svg>