<svg height="512" viewBox="0 0 512 512" width="512" xmlns="http://www.w3.org/2000/svg"><g><path d="m239.029 384.97a24 24 0 0 0 33.942 0l90.509-90.509a24 24 0 0 0 0-33.941 24 24 0 0 0 -33.941 0l-49.539 49.539v-262.059a24 24 0 0 0 -48 0v262.059l-49.539-49.539a24 24 0 0 0 -33.941 0 24 24 0 0 0 0 33.941z" fill="#ffd54f"/><path d="m464 232a24 24 0 0 0 -24 24v184h-368v-184a24 24 0 0 0 -48 0v192a40 40 0 0 0 40 40h384a40 40 0 0 0 40-40v-192a24 24 0 0 0 -24-24z" fill="#2096f3"/><g fill="#0d47a0"><path d="m256 399.985a31.9 31.9 0 0 1 -22.627-9.358l-90.51-90.509a32 32 0 0 1 45.255-45.255l35.882 35.882v-242.745a32 32 0 0 1 64 0v242.745l35.882-35.882a32 32 0 0 1 45.256 45.255l-90.51 90.509a31.9 31.9 0 0 1 -22.628 9.358zm-11.314-20.672a16.018 16.018 0 0 0 22.628 0l90.509-90.513a16 16 0 1 0 -22.623-22.623l-49.538 49.539a8 8 0 0 1 -13.662-5.657v-262.059a16 16 0 0 0 -32 0v262.059a8 8 0 0 1 -13.657 5.657l-49.543-49.539a16 16 0 1 0 -22.623 22.623l90.51 90.51z"/><path d="m448 496h-384a48.054 48.054 0 0 1 -48-48v-192a32 32 0 0 1 64 0v176h352v-176a32 32 0 0 1 64 0v192a48.054 48.054 0 0 1 -48 48zm-400-256a16.019 16.019 0 0 0 -16 16v192a32.036 32.036 0 0 0 32 32h384a32.036 32.036 0 0 0 32-32v-192a16 16 0 0 0 -32 0v184a8 8 0 0 1 -8 8h-368a8 8 0 0 1 -8-8v-184a16.019 16.019 0 0 0 -16-16z"/></g></g></svg>